<mxfile host="app.diagrams.net" modified="2023-09-21T06:08:38.201Z" agent="Mozilla/5.0 (Windows NT 10.0; Win64; x64) AppleWebKit/537.36 (KHTML, like Gecko) Chrome/117.0.0.0 Safari/537.36" version="21.7.5" etag="l36hZMBY4V4Vs6ezI6om" type="github">
  <diagram name="페이지-1" id="gvg3BdhjkPvYilUxy2FS">
    <mxGraphModel>
      <root>
        <mxCell id="0" />
        <mxCell id="1" parent="0" />
      </root>
    </mxGraphModel>
  </diagram>
</mxfile>
